<svg id="Layer_1" data-name="Layer 1" xmlns="http://www.w3.org/2000/svg" viewBox="0 0 835.78 704.57"><defs><style>.cls-1{fill:#b5d77e;}</style></defs><title>blobpopup</title><path class="cls-1" d="M887.73,367c0,32.46,1.12,65-2.52,97.41-3.24,29-8.51,57.75-31.5,83.43-18,20.1-43.52,35.79-72,48.75Q629,666.82,464.37,724.36c-26,9-53.28,15.69-83.25,16.83a209.73,209.73,0,0,1-72-9.3c-67.19-21.57-132.8-45.24-193.91-73.86-36.9-17.37-55.75-41.85-60.16-71.46-6.26-42-1.35-83.82,3.91-125.64,4-31.32,7.61-62.7,12-94,7.34-52.41,11.66-105,29.43-156.57,9.41-27.27,26.6-52,58.91-70.92a316.77,316.77,0,0,1,56.92-25.32c69.35-23.76,139.14-46.86,211.5-66.54,52.88-14.4,105.12-14.64,157.14.93C656,69.79,726.18,92.32,794,118c50.08,19,77.22,47.58,84.69,85.23a411.59,411.59,0,0,1,6.88,56.7C887.59,295.54,887.73,331.27,887.73,367Z" transform="translate(-52.11 -36.81)"/></svg>