<svg id="Layer_1" data-name="Layer 1" xmlns="http://www.w3.org/2000/svg" viewBox="0 0 699.44 764.21"><defs><style>.cls-1{fill:#afed7f;}</style></defs><title>overlay4</title><path class="cls-1" d="M135.84,326.89c0-30.27-.14-60.51,2.72-90.77,3.58-37.94,22.94-64.84,53.7-85.4,32.53-21.74,67-40,101.24-58.8C328,73,362.36,53.82,398.49,38.07c20.2-8.8,41.06-15.11,63.16-15.84,16.44-.55,32.42,3.07,47.85,8.64C549.5,45.32,585.61,67.42,622,89c46.86,27.76,94.35,54.56,139,85.92,17.67,12.41,34.43,26,47.71,43.29,16.75,21.8,23.27,47.2,25.31,74.12,2.92,38.46-.24,76.75-3.1,115.05-2.52,33.66-4.62,67.36-7.46,101-2.77,32.72-6.14,65.36-13.22,97.56-8.56,38.89-29.47,69-63.31,89.24-51.83,31-105.34,58.81-162.75,78.25-22.09,7.48-44.91,12.47-68.36,13-46.23,1-86.61-15.44-123.06-42.72-37.11-27.78-68.49-61.49-98.11-96.8q-53.86-64.2-103.82-131.57c-19.29-26-37.49-52.71-46.86-84.34a188.55,188.55,0,0,1-7.93-48C135.4,364.23,135.84,345.55,135.84,326.89Z" transform="translate(-135.68 -22.17)"/></svg>