<svg id="Layer_1" data-name="Layer 1" xmlns="http://www.w3.org/2000/svg" viewBox="0 0 778.81 567.53"><defs><style>.cls-1{fill:#afed7f;}</style></defs><title>overlay2</title><path class="cls-1" d="M481.16,689.52c-53.53,0-107.08.68-160.59-.22-44.22-.74-88.4-3-132-10.22-57.33-9.57-89.15-37.73-97.76-86.89-5.47-31.21-7.53-62.6-8.28-94-1.32-55.67-2.32-111.37-1.84-167,.23-26.69,1.25-53.5,7.91-80,6.34-25.16,21-45.86,47.54-60.67a902.4,902.4,0,0,1,127.41-58.45c41-15.11,83-10.63,124.61-1.13,82.81,18.9,163.13,43.62,244.13,66.73,34.14,9.74,68.06,20,100.41,33.14,25.56,10.37,49.52,22.51,67.56,41,20.74,21.29,28.38,46.42,34.4,72,7.42,31.47,10.42,63.4,13.79,95.29,5.46,51.64,12.42,103.19,10.64,155.15a124.94,124.94,0,0,1-3.37,23.38c-8.09,35.68-37.73,54-79.89,61.29C742.21,684.72,708,687,673.54,688.3,609.41,690.74,545.28,689.09,481.16,689.52Z" transform="translate(-80.59 -122.23)"/></svg>