<svg id="Layer_1" data-name="Layer 1" xmlns="http://www.w3.org/2000/svg" viewBox="0 0 710.92 693.23"><defs><style>.cls-1{fill:#afed7f;}</style></defs><title>overlay1</title><path class="cls-1" d="M825.35,569.47c.51,15.91-.48,33.76-8.92,50.7-11.57,23.21-33.73,36.31-57.91,47.37-41.58,19-86,32.07-129.57,46.78-34.62,11.68-69.53,22.5-105.13,31.81-51.09,13.37-97.66,5.59-142-18.81-51.23-28.18-99.45-60.17-148.64-90.92a789.22,789.22,0,0,1-68.28-48.13c-34.21-26.77-49-60.82-50.15-100.32-1.08-38.26,2.86-76.31,6.26-114.38,2.28-25.61,4.43-51.23,7.26-76.8,2.74-24.82,6.31-49.53,16.54-73.1,9.46-21.78,26.19-38.23,47.05-51.9s43.46-24.41,66.3-34.89q58.39-26.82,117.41-52.62A415.07,415.07,0,0,1,430.6,64.62c32.26-9,63.89-5.84,94.58,5.39,55.77,20.41,109.6,44.37,162.1,70.64,38,19,59.15,49.24,71.54,85,17,49.05,25.37,99.71,35.67,150,7.48,36.55,14.82,73.14,21.24,109.84C820.47,512.6,825.82,539.7,825.35,569.47Z" transform="translate(-114.54 -59.38)"/></svg>